<svg xmlns="http://www.w3.org/2000/svg" viewBox="0 0 512 512"><path d="M207.898 325.571l-29.894-91.312L256 177.732l77.996 56.527-29.622 91.312h-96.476zM504 256c0 136.967-111.033 248-248 248S8 392.967 8 256 119.033 8 256 8s248 111.033 248 248zm-455.998-.19L48 256c0 44.7 14.015 87.242 39.95 122.626l7.982-35.118 88.595 10.871 37.775 80.985-30.978 18.427c41.832 13.631 87.598 13.606 129.354 0L289.7 435.364l37.775-80.985 88.594-10.871 7.982 35.118C449.985 343.242 464 300.7 464 256l-.002-.19-27.003 23.561-65.223-60.875 17.122-87.779 35.538 3.183c-25.216-34.63-61.309-62.053-104.577-75.951l14.143 33.091L256 134.25l-77.996-43.21 14.144-33.091C148.868 71.851 112.782 99.277 87.57 133.9l35.81-3.183 16.849 87.779-65.223 60.875-27.004-23.561z"/></svg>